# xmcd
#
# Track frame offsets:
#	150
#	13368
#	23132
#	37149
#	48382
#	66835
#	81184
#	95211
#	105882
#	121872
#	134671
#	151404
#
# Disc length: 2218 seconds
#
# Revision: 1
# Processed by: cddbd v1.5.2PL0 Copyright (c) Steve Scherf et al.
# Submitted via: audiograbber 1.83.01
#
DISCID=a208a80c
DTITLE=Billie Jo Spears - Special Songs
DYEAR=1994
DGENRE=Country
TTITLE0=What The World Needs Now Is Lo
TTITLE1=Snowbird
TTITLE2=Lay Down Beside Me
TTITLE3=Broken Lady
TTITLE4=Everything Is Beautiful
TTITLE5=Heartbreak Hotel
TTITLE6=Desperado
TTITLE7=Your Good Girl's Gonna Go Bad
TTITLE8=I Fall To Pieces
TTITLE9=Rose Garden
TTITLE10=Bridge Over Troubled Waters
TTITLE11=Loving Him Was Easier
EXTD=
EXTT0=
EXTT1=
EXTT2=
EXTT3=
EXTT4=
EXTT5=
EXTT6=
EXTT7=
EXTT8=
EXTT9=
EXTT10=
EXTT11=
PLAYORDER=
